# xmcd
#
# Track frame offsets:
#	150
#	19358
#	29616
#	43680
#	59054
#	75091
#	91492
#	109534
#	123638
#	139085
#	148748
#	161373
#	174805
#	190593
#	201727
#	215233
#
# Disc length: 3070 seconds
#
# Revision: 0
# Processed by: cddbd v1.5.2PL0 Copyright (c) Steve Scherf et al.
# Submitted via: audiograbber 1.83.01
#
DISCID=e90bfc10
DTITLE=Mantovani and His Orchestra - Film Encores
DYEAR=1900
DGENRE=
TTITLE0=My Foolish Heart: My Foolish Heart
TTITLE1=Unchained: Unchained Melody
TTITLE2=The Wizard Of Oz: Over The Rainbow
TTITLE3=Summer Madness: Summertime In Venice
TTITLE4=Escape To Hapiness: Intermezzo
TTITLE5=Three Coins In The Fountain: Three Coins In The Fountain
TTITLE6=Love Is A Many-Splendored Thing: Love Is A Many-Splendored Thing
TTITLE7=Laura: Laura
TTITLE8=High Noon: High Noon
TTITLE9=Lili: Hi-Lili, Hi-Lo
TTITLE10=September Affair: September Song
TTITLE11=Limelight: Theme
TTITLE12=Hear My Song, Violetta
TTITLE13=My Old Dutch
TTITLE14=Can`t Help Lovin` Dat Man
TTITLE15=Yours Is My Heart Alone
EXTD=
EXTT0=
EXTT1=
EXTT2=
EXTT3=
EXTT4=
EXTT5=
EXTT6=
EXTT7=
EXTT8=
EXTT9=
EXTT10=
EXTT11=
EXTT12=
EXTT13=
EXTT14=
EXTT15=
PLAYORDER=
